<svg xmlns="http://www.w3.org/2000/svg" width="40" height="40" viewBox="0 0 800 800">
  <g transform="translate(0,800) scale(0.1,-0.1)" fill="#FFFFFF" stroke="none">
    <path d="M3491 6758 c-53 -36 -66 -62 -125 -243 -30 -93 -86 -269 -126 -390 -81 -251 -118 -383 -123 -440 -4 -40 -5 -40 -48 -43 -258 -15 -655 -112 -882 -216 -391 -179 -668 -471 -747 -785 -39 -151 -20 -352 43 -478 64 -126 176 -235 302 -294 241 -113 553 -83 965 94 58 25 106 44 108 43 1 -2 -23 -56 -54 -122 -108 -230 -188 -456 -219 -621 -23 -122 -22 -339 4 -458 39 -188 122 -361 237 -499 l64 -76 -30 -60 c-17 -33 -77 -165 -134 -293 -57 -127 -119 -264 -137 -304 -30 -67 -32 -75 -20 -112 37 -126 155 -156 510 -132 204 13 235 26 292 113 21 33 45 83 54 111 27 83 98 228 109 223 174 -77 284 -101 436 -93 112 6 250 38 357 81 76 31 83 32 83 6 0 -51 34 -181 64 -245 42 -91 108 -158 194 -198 58 -27 80 -32 168 -35 118 -5 180 10 287 65 140 74 176 183 88 267 -48 46 -92 45 -183 -3 -118 -62 -196 -67 -259 -13 -73 61 -91 169 -93 554 -1 262 -2 278 -22 305 -53 72 -156 81 -218 18 -43 -42 -47 -69 -45 -261 0 -86 -3 -160 -8 -164 -20 -18 -195 -80 -273 -95 -143 -29 -380 -11 -449 34 -11 7 -2 32 48 126 35 65 74 134 87 155 34 51 39 97 17 140 -40 76 -135 103 -204 57 -39 -26 -169 -252 -371 -644 l-120 -233 -109 0 c-60 0 -109 2 -109 4 0 16 99 246 142 329 38 74 67 117 107 155 54 51 55 53 59 117 4 63 3 66 -30 99 -29 29 -34 40 -30 71 4 34 0 41 -64 103 -83 81 -126 151 -170 280 -47 136 -61 269 -45 408 27 237 88 401 307 829 l153 301 -6 87 c-7 100 -20 125 -84 157 -73 38 -123 22 -234 -74 -122 -107 -193 -155 -330 -222 -466 -228 -821 -201 -950 73 -67 140 -29 329 99 500 247 328 802 523 1561 549 182 7 192 6 232 -15 46 -23 121 -28 154 -10 17 9 28 2 79 -50 164 -168 206 -452 108 -746 -34 -104 -111 -254 -238 -465 -190 -315 -264 -482 -290 -656 -37 -244 78 -458 307 -573 119 -59 199 -75 378 -76 180 0 252 12 431 71 553 183 1142 653 1517 1213 32 47 57 83 57 80 0 -14 -121 -357 -167 -474 -62 -157 -224 -493 -303 -630 -132 -228 -344 -519 -478 -658 -32 -32 -78 -70 -104 -83 -56 -28 -78 -58 -89 -120 -11 -57 4 -95 59 -148 31 -29 50 -39 85 -43 73 -9 114 12 209 104 l86 85 26 -17 c40 -27 66 -91 66 -166 0 -81 -20 -151 -72 -251 -46 -88 -46 -121 4 -163 34 -29 98 -34 151 -11 132 54 224 363 171 570 -20 76 -65 163 -116 220 -21 24 -38 48 -38 53 0 5 25 43 57 84 307 403 610 1050 778 1660 106 387 155 690 162 1004 5 219 5 220 -19 255 -53 77 -130 99 -214 61 -59 -27 -79 -59 -104 -168 -50 -220 -150 -507 -249 -716 -286 -600 -854 -1146 -1453 -1395 -170 -71 -311 -102 -465 -102 -359 0 -461 187 -298 545 18 40 92 171 165 291 162 268 220 383 270 533 51 153 64 250 57 425 -6 169 -28 264 -89 386 l-43 85 90 180 c177 352 306 731 309 903 l1 73 -42 40 c-39 36 -47 39 -97 39 -72 0 -96 -21 -212 -187 -158 -228 -344 -477 -350 -470 -1 1 -7 61 -13 132 -26 302 -108 600 -186 675 -28 27 -44 34 -87 38 -44 3 -59 0 -87 -20z m76 -956 c-2 -111 -6 -204 -8 -205 -2 -2 -44 -1 -92 1 l-88 4 6 32 c19 92 146 512 164 541 13 20 22 -177 18 -373z m383 -246 l-52 -95 -26 16 c-15 9 -29 18 -31 20 -3 2 31 39 75 82 43 43 80 77 82 76 2 -1 -20 -46 -48 -99z"/>
    <path d="M2575 5128 c-134 -50 -209 -190 -171 -320 39 -135 182 -215 316 -178 144 40 225 198 175 341 -22 62 -55 101 -115 133 -59 32 -154 43 -205 24z"/>
    <path d="M1945 4742 c-102 -35 -155 -132 -120 -220 44 -109 175 -141 265 -66 61 52 78 133 42 204 -27 55 -131 101 -187 82z"/>
  </g>
</svg>
