<svg xmlns="http://www.w3.org/2000/svg" width="40" height="40" viewBox="0 0 120 120">
  <rect width="120" height="120" rx="25" fill="#f8f8f8"/>
  <path d="M16,52h4v1h-4z M32,52h4v1h-4z M53,52h6v1h-6z M64,52h1v1h-1z M73,52h1v1h-1z M85,52h6v1h-6z M96,52h6v1h-6z M16,53h5v1h-5z M31,53h5v1h-5z M40,53h5v1h-5z M51,53h9v1h-9z M61,53h4v1h-4z M70,53h4v1h-4z M79,53h4v1h-4z M84,53h8v1h-8z M95,53h8v1h-8z M17,54h4v1h-4z M30,54h5v1h-5z M40,54h5v1h-5z M50,54h15v1h-15z M70,54h4v1h-4z M79,54h14v1h-14z M94,54h10v1h-10z M17,55h5v1h-5z M30,55h5v1h-5z M40,55h5v1h-5z M49,55h16v1h-16z M70,55h4v1h-4z M79,55h25v1h-25z M18,56h4v1h-4z M30,56h4v1h-4z M40,56h5v1h-5z M48,56h6v1h-6z M59,56h6v1h-6z M70,56h4v1h-4z M79,56h5v1h-5z M89,56h6v1h-6z M100,56h5v1h-5z M18,57h5v1h-5z M29,57h5v1h-5z M40,57h5v1h-5z M48,57h5v1h-5z M60,57h5v1h-5z M70,57h4v1h-4z M79,57h4v1h-4z M90,57h5v1h-5z M101,57h4v1h-4z M19,58h4v1h-4z M29,58h4v1h-4z M40,58h5v1h-5z M48,58h4v1h-4z M61,58h4v1h-4z M70,58h4v1h-4z M79,58h4v1h-4z M90,58h4v1h-4z M101,58h4v1h-4z M19,59h5v1h-5z M28,59h5v1h-5z M40,59h5v1h-5z M48,59h4v1h-4z M61,59h4v1h-4z M70,59h4v1h-4z M79,59h4v1h-4z M90,59h4v1h-4z M101,59h4v1h-4z M20,60h4v1h-4z M28,60h4v1h-4z M40,60h5v1h-5z M47,60h5v1h-5z M61,60h4v1h-4z M70,60h4v1h-4z M79,60h4v1h-4z M90,60h4v1h-4z M101,60h4v1h-4z M20,61h5v1h-5z M27,61h5v1h-5z M40,61h5v1h-5z M47,61h5v1h-5z M61,61h4v1h-4z M70,61h4v1h-4z M79,61h4v1h-4z M90,61h4v1h-4z M101,61h4v1h-4z M21,62h4v1h-4z M27,62h4v1h-4z M40,62h5v1h-5z M48,62h4v1h-4z M61,62h4v1h-4z M70,62h4v1h-4z M79,62h4v1h-4z M90,62h4v1h-4z M101,62h4v1h-4z M21,63h10v1h-10z M40,63h5v1h-5z M48,63h4v1h-4z M61,63h4v1h-4z M70,63h4v1h-4z M79,63h4v1h-4z M90,63h4v1h-4z M101,63h4v1h-4z M22,64h8v1h-8z M40,64h5v1h-5z M48,64h4v1h-4z M60,64h5v1h-5z M70,64h4v1h-4z M79,64h4v1h-4z M90,64h4v1h-4z M101,64h4v1h-4z M22,65h8v1h-8z M40,65h5v1h-5z M48,65h5v1h-5z M60,65h5v1h-5z M70,65h4v1h-4z M79,65h4v1h-4z M90,65h4v1h-4z M101,65h4v1h-4z M23,66h6v1h-6z M40,66h5v1h-5z M49,66h6v1h-6z M58,66h7v1h-7z M70,66h4v1h-4z M79,66h4v1h-4z M90,66h4v1h-4z M101,66h4v1h-4z M23,67h6v1h-6z M40,67h5v1h-5z M50,67h15v1h-15z M70,67h4v1h-4z M79,67h4v1h-4z M90,67h4v1h-4z M101,67h4v1h-4z M24,68h4v1h-4z M40,68h5v1h-5z M51,68h14v1h-14z M70,68h4v1h-4z M79,68h4v1h-4z M90,68h4v1h-4z M101,68h4v1h-4z M24,69h4v1h-4z M40,69h5v1h-5z M52,69h7v1h-7z M61,69h4v1h-4z M70,69h4v1h-4z M79,69h4v1h-4z M90,69h4v1h-4z M101,69h4v1h-4z" fill="#1a1a1a"/>
  <path d="M41,47h3v1h-3z M70,47h4v1h-4z M40,48h5v1h-5z M70,48h4v1h-4z M40,49h4v1h-4z M70,49h4v1h-4z M41,50h3v1h-3z M71,50h2v1h-2z" fill="#ff4d00"/>
</svg>
